<?xml version="1.0" encoding="utf-8"?>
<svg width="11px" height="11.000977px" viewBox="0 0 11 11.000977" version="1.1" xmlns:xlink="http://www.w3.org/1999/xlink" xmlns="http://www.w3.org/2000/svg">
  <path d="M1564.94 -4509.16L1566.98 -4511.2L1573.35 -4511.2C1574.26 -4511.2 1575 -4511.94 1575 -4512.85L1575 -4518.35C1575 -4519.26 1574.26 -4520 1573.35 -4520L1565.65 -4520C1564.74 -4520 1564 -4519.26 1564 -4518.35L1564 -4509.55C1564 -4509.06 1564.59 -4508.81 1564.94 -4509.16ZM1566.75 -4512.3C1566.6 -4512.3 1566.46 -4512.24 1566.36 -4512.14L1565.1 -4510.88L1565.1 -4518.35C1565.1 -4518.65 1565.35 -4518.9 1565.65 -4518.9L1573.35 -4518.9C1573.65 -4518.9 1573.9 -4518.65 1573.9 -4518.35L1573.9 -4512.85C1573.9 -4512.55 1573.65 -4512.3 1573.35 -4512.3L1566.75 -4512.3Z" id="Shape-Copy-2" fill="#9AA3AB" fill-rule="evenodd" stroke="none" />
</svg>