<?xml version="1.0" encoding="utf-8"?>
<svg width="11px" height="11.001099px" viewBox="0 0 11 11.001099" version="1.1" xmlns:xlink="http://www.w3.org/1999/xlink" xmlns="http://www.w3.org/2000/svg">
  <path d="M-1420.06 -1269.16L-1418.02 -1271.2L-1411.65 -1271.2C-1410.74 -1271.2 -1410 -1271.94 -1410 -1272.85L-1410 -1278.35C-1410 -1279.26 -1410.74 -1280 -1411.65 -1280L-1419.35 -1280C-1420.26 -1280 -1421 -1279.26 -1421 -1278.35L-1421 -1269.55C-1421 -1269.06 -1420.41 -1268.81 -1420.06 -1269.16ZM-1418.25 -1272.3C-1418.4 -1272.3 -1418.54 -1272.24 -1418.64 -1272.14L-1419.9 -1270.88L-1419.9 -1278.35C-1419.9 -1278.65 -1419.65 -1278.9 -1419.35 -1278.9L-1411.65 -1278.9C-1411.35 -1278.9 -1411.1 -1278.65 -1411.1 -1278.35L-1411.1 -1272.85C-1411.1 -1272.55 -1411.35 -1272.3 -1411.65 -1272.3L-1418.25 -1272.3Z" id="Shape" fill="#9AA3AB" fill-rule="evenodd" stroke="none" />
</svg>